<svg width="64" height="35" viewBox="0 0 84 55" fill="none" xmlns="http://www.w3.org/2000/svg">
<path d="M80.585 38.6585C80.585 40.8919 77.5235 43.6372 75.0334 43.6372H72.7663C72.7687 29.9692 72.7687 14.6463 72.7663 11.9264C72.7653 11.8459 72.7826 11.766 72.8172 11.6913C72.8517 11.6166 72.9029 11.5486 72.9677 11.4911C73.0326 11.4336 73.1098 11.3878 73.195 11.3564C73.2802 11.3249 73.3716 11.3084 73.4642 11.3078H79.8839C80.2695 11.3078 80.5853 11.5894 80.5853 11.9313L80.585 38.6585ZM70.1237 48.4333C70.1237 49.847 69.329 52.2152 64.0052 52.2152C53.6881 52.2152 47.3547 45.18 47.3547 40.1344C47.3547 40.1344 47.3432 23.8197 47.3432 11.9316C47.3421 11.8509 47.3594 11.7709 47.394 11.6961C47.4287 11.6213 47.4799 11.5531 47.5449 11.4956C47.6099 11.4381 47.6874 11.3924 47.7727 11.361C47.8581 11.3297 47.9498 11.3133 48.0425 11.3129H54.4699C54.8558 11.3129 55.1727 11.5927 55.1727 11.9368V38.1505C55.1727 42.4817 59.1111 45.9948 63.9662 45.9948H70.1272L70.1237 48.4333ZM80.3711 8.95685H72.9759C71.4035 8.95685 70.123 10.0999 70.123 11.5021V43.6399H63.9616C60.5623 43.6399 57.8072 41.1816 57.8072 38.1499V11.5021C57.8072 10.0966 56.5284 8.95564 54.9529 8.95564H47.5546C45.9791 8.95564 44.7006 10.0966 44.6982 11.5021C44.6943 23.1216 44.7097 40.135 44.7097 40.135C44.7107 49.0777 55.9472 54.5689 64.0031 54.5689C69.4066 54.5689 72.7628 52.2128 72.7628 48.4172V45.9942H75.0324C79.0133 45.9942 83.2241 42.2243 83.2241 38.6585V11.5021C83.2279 10.0966 81.9491 8.95685 80.3711 8.95685ZM36.6642 43.0685C36.6651 43.1491 36.6478 43.229 36.6131 43.3036C36.5784 43.3783 36.5271 43.4463 36.4622 43.5037C36.3972 43.5611 36.3199 43.6067 36.2346 43.638C36.1494 43.6693 36.0578 43.6856 35.9653 43.686H29.5378C29.1468 43.686 28.8333 43.4038 28.8351 43.0637V16.8496C28.8351 12.5187 24.8956 9.00566 20.0416 9.00566H13.8802V6.56651C13.8802 5.15582 14.6749 2.78458 19.9987 2.78458C30.3162 2.78458 36.6513 9.81951 36.6513 14.8654C36.6513 14.8654 36.6642 31.2596 36.6642 43.0685ZM4.11685 43.6914C3.72575 43.6814 3.41302 43.4071 3.41755 43.0667V16.3443C3.41755 14.1107 6.47942 11.3617 8.96841 11.3617H11.2377C11.2342 30.9346 11.2342 40.9501 11.2377 43.0655C11.2394 43.2289 11.1667 43.3863 11.0355 43.5032C10.9042 43.6202 10.7251 43.6871 10.5373 43.6893H4.11789L4.11685 43.6914ZM39.2894 14.8657C39.2908 5.92209 28.0539 0.430908 19.9991 0.430908C14.5942 0.430908 11.2377 2.7867 11.2377 6.58257V9.00566H8.96946C4.98714 9.00566 0.776367 12.7755 0.776367 16.3416V43.4977C0.776367 44.9033 2.05482 46.0442 3.62964 46.0442H11.0235C11.0694 46.0442 11.1088 46.0333 11.1548 46.0333C12.6659 45.9699 13.8764 44.8623 13.8764 43.4977V11.3599H20.0388C23.4367 11.3599 26.1932 13.8182 26.1932 16.8499V43.498C26.1932 44.9036 27.472 46.0445 29.0465 46.0445H36.4462C38.0217 46.0445 39.2995 44.9066 39.2995 43.498C39.3051 31.6618 39.2894 14.8657 39.2894 14.8657Z" fill="white"/>
</svg>
